PathFileType	4	(X/Y/Z)	13_2_33_p1_0-299_filt_butterworth.trc
DataRate	CameraRate	NumFrames	NumMarkers	Units	OrigDataRate	OrigDataStartFrame	OrigNumFrames
59.0	59.0	6	27	m	59.0	74	299
Frame#	Time	RHip			RKnee			RAnkle			RBigToe			RSmallToe			RHeel			LHip			LKnee			LAnkle			LBigToe			LSmallToe			LHeel			Neck			Head			Nose			RShoulder			RElbow			RWrist			RThumb			RIndex			RPinky			LShoulder			LElbow			LWrist			LThumb			LIndex			LPinky			
		X1	Y1	Z1	X2	Y2	Z2	X3	Y3	Z3	X4	Y4	Z4	X5	Y5	Z5	X6	Y6	Z6	X7	Y7	Z7	X8	Y8	Z8	X9	Y9	Z9	X10	Y10	Z10	X11	Y11	Z11	X12	Y12	Z12	X13	Y13	Z13	X14	Y14	Z14	X15	Y15	Z15	X16	Y16	Z16	X17	Y17	Z17	X18	Y18	Z18	X19	Y19	Z19	X20	Y20	Z20	X21	Y21	Z21	X22	Y22	Z22	X23	Y23	Z23	X24	Y24	Z24	X25	Y25	Z25	X26	Y26	Z26	X27	Y27	Z27	
74	1.2542372881355932	0.2572299388914478	0.33927225450797965	1.15586122706784	0.275624280363829	-0.11433910949308385	1.1709783071121143	0.2677986766115953	-0.5134180990855369	1.194769665614108	0.2539686302428798	-0.4886476993058986	0.9659999857910321	0.32025051275503486	-0.4917719973593325	0.9920493225710391	0.2469088312479229	-0.5910705704176152	1.2512533049911745	0.05084820474510029	0.3330226829527449	1.1469706056314362	0.06132090951825972	-0.09772668122594319	1.161275423133821	0.06837143312746462	-0.497360102600394	1.1441466482357379	0.09035234751293128	-0.4923407555008691	0.9812664900706839	0.031879701003248995	-0.5073690580916488	1.0165850537733743	0.08271960441887324	-0.5652428557855681	1.2152555846709205	0.15061422345275446	0.8835611476803146	1.1733657150294918	0.16322344374210562	1.1436545832252476	1.09801082442543	0.1451589300207115	1.0214651107322483	1.0117524774488929	0.3026650195880575	0.8312657477396922	1.1272266841197351	0.49004778087291634	0.6075343983062409	1.179035190534167	0.3974965066944958	0.396980747583546	1.124233802656514	0.25562374906919944	0.34286755834780125	1.0909312453836342	0.2651242239562594	0.3078156588390906	1.0879259929528875	0.3311216961251692	0.30136733557779866	1.0723356403622932	0.007042100207190215	0.8279304942568098	1.1375509507191222	-0.16473417096765988	0.6078409190642036	1.1597313984993962	-0.06103987037145067	0.3755594578566543	1.1251792286550562	0.043720065921858446	0.34029682232487907	1.1304179342323768	0.034499930786464614	0.3260722937287336	1.080573001293546	-0.0045790656697110455	0.29764239615416677	1.0406587353570658	
75	1.271186440677966	0.2565484155032273	0.3404401506428722	1.156042083356736	0.2755575194085787	-0.11467699187357305	1.170903116718101	0.26811823115478195	-0.5130343240734364	1.193312319563445	0.25384847051084664	-0.4887817766825968	0.9655709879744564	0.3205944927995894	-0.49109217770559255	0.9906844886829931	0.24740317275771295	-0.5905026494935707	1.250092693011163	0.050950168781695546	0.3335983248982291	1.1469370315033238	0.061266956181145894	-0.0974256654061193	1.1612611341851506	0.06835264743700037	-0.49751273056576445	1.1440343371811752	0.09073781982621343	-0.4927179621681886	0.9822592164575081	0.031792818465798595	-0.5078719587716591	1.0178982535987184	0.08250371785037659	-0.5645815619391875	1.2146953103394793	0.15032851809283326	0.8828365204290695	1.1730854141354823	0.16240434205654136	1.1438927589774854	1.0960852757222992	0.14522781931627357	1.0207003391663225	1.0116235068295651	0.30266455195221825	0.8313395389414961	1.1272460115485914	0.48769193118475285	0.6044028012326395	1.1796266935794566	0.3972916836617012	0.39859424307434516	1.1197045298481527	0.24968033637557122	0.34862879049725193	1.0804932632935211	0.25804699776900236	0.3120987174639161	1.076050137726548	0.3295454205901643	0.30117143759460463	1.0688975727620327	0.006927282139681683	0.8280527079346593	1.1371853257575204	-0.16142047899860779	0.6031898314944324	1.159394041410917	-0.05991628861182058	0.37061941500577367	1.1255129788458293	0.04453009922854349	0.33787767262222945	1.1305956397220158	0.03588522597748609	0.324402888607873	1.0805622591823043	-0.0020369514367363254	0.2923954842879856	1.0418795355481374	
76	1.2881355932203389	0.25603198436715324	0.3414099289775912	1.156485573693042	0.2754425307930642	-0.114921621018025	1.1708185978343135	0.2683601339929279	-0.5131235051462134	1.19239824296968	0.25386557671421917	-0.4889457237999182	0.9655841693558391	0.320960123775636	-0.490726336288458	0.9899641846678066	0.24768568655529646	-0.5901178375551581	1.2491693380846465	0.05096233577692796	0.33395403738360824	1.1470994369237186	0.061198828756132036	-0.09729392737385067	1.1612544803345761	0.0683222382386425	-0.4977200724217305	1.1438944545680743	0.09107505681901656	-0.49425662723701186	0.9839944182828161	0.032081160280521576	-0.5080175719733301	1.0183194342073538	0.0823349790959452	-0.5638693423436394	1.2142933046896003	0.15028540514830635	0.882191504093003	1.172938364678356	0.16095448427645598	1.1440256576171222	1.094864791197176	0.14530618869915976	1.0197415961615048	1.0115301788137319	0.3026697647410682	0.8314487088842034	1.1272798303098832	0.48613099187082703	0.602313026778562	1.1792271902143319	0.39749835975089387	0.39962354841320835	1.1161542815086738	0.2450482572045562	0.35424120815091265	1.073579765304797	0.25252632526982227	0.3163041447277265	1.0653664363890372	0.32814700769636096	0.30103676741809654	1.065248382625026	0.00690782006563296	0.828023946589917	1.1374145782495075	-0.15929920534751552	0.5988537325847663	1.1603519877485067	-0.05983100469541927	0.3664809803610582	1.125570439234568	0.044607001495963056	0.3365891085795493	1.1300221912942605	0.03605509423609966	0.3232967090666579	1.0797329199955221	-0.0004363575952030305	0.28721390808134356	1.0438632719634773	
77	1.305084745762712	0.25561837004991683	0.3420706785908119	1.1571856643362741	0.27527024026930336	-0.11506265437101953	1.1707450538059176	0.26848234050004405	-0.5137337410242175	1.1922258362765814	0.2538979509774035	-0.4890045417458354	0.9658503690573417	0.32115667661003644	-0.49036597739740523	0.9895036428315759	0.247632623094325	-0.5899721411946122	1.2487739330247607	0.05085420863260848	0.3340112626836476	1.1475010044369922	0.061124871928089956	-0.0972834400573459	1.161264321465428	0.06827238285065407	-0.49795794607813915	1.1437828044063467	0.09117938642082667	-0.4964715956308385	0.9856337645030939	0.032480498924648216	-0.5079555546563843	1.0181708853328015	0.08215369928391522	-0.5631718386301922	1.213891047290311	0.15038769851416223	0.8816059877474097	1.1728714804433673	0.15908557564247566	1.1440418945648072	1.0943928604249145	0.14538410843171956	1.0186990733797694	1.0114890388029347	0.3026739339530202	0.8315191247763831	1.1273138459304561	0.4853117525358866	0.600938744529391	1.1780842967983869	0.397686200912848	0.39962611682244054	1.1146770187457602	0.24188764262409906	0.3596303800509012	1.0698780293787862	0.24868521735202026	0.3199631072471407	1.0572331414064162	0.3269204353889362	0.30099551354372256	1.061807848240387	0.006917247966685295	0.8279406686503156	1.1377594530569	-0.15811224713648991	0.5955834772071393	1.1614861522903632	-0.060553771552211214	0.3632018842885016	1.1259200371466653	0.0441191960079305	0.3358181452329957	1.129931025607832	0.035595178862597374	0.3224363894547785	1.0787770623473611	0.00038941553591359963	0.28285903250009886	1.0457769686860081	
78	1.3220338983050848	0.25522599615697245	0.342378914903611	1.1580835961268505	0.2750519101890559	-0.11508963937803063	1.1706840123695663	0.26848530432028017	-0.5148334265160743	1.1928469217523217	0.2539297068866295	-0.4891611119236868	0.9665462672946888	0.3211806142250635	-0.4901104065621401	0.9893184108582402	0.24733841126861977	-0.5900303185442871	1.248965849978821	0.05063273260392932	0.3338034001223182	1.1480973313746272	0.061051312690278935	-0.09733303446436864	1.1612837562751641	0.06819866561311723	-0.49822147997820304	1.1437379647895285	0.09112588479894818	-0.49877412374459007	0.9865275296850338	0.03273619528747371	-0.5078989208203637	1.0179338121414008	0.08191931620090238	-0.5626501778925069	1.2134125808888703	0.1504983657380574	0.8811173076517893	1.1728274469958961	0.15711483950721897	1.143977999021745	1.0943969555686144	0.14544984263084026	1.017719913839157	1.0115061101807215	0.3026757454718689	0.8315518936103226	1.1273444419551513	0.48512099013220944	0.5997108226602849	1.1770526814084221	0.3976906015853549	0.398562520943462	1.1154631078517245	0.2402322120454767	0.36448436508384807	1.0683502520589598	0.24649039918313276	0.32236800998046483	1.0530338809954234	0.3259259873349887	0.30099428817595725	1.0590321991771203	0.0069191462990951325	0.8278901257172715	1.1379365103284291	-0.1576038647396209	0.5935871388176805	1.1621290580495394	-0.06168102911095444	0.36064179405039876	1.127033161275802	0.043296455514692286	0.33499490477137156	1.1309722546568022	0.035117928152352415	0.32166921821923267	1.0782289560167315	0.0006244669533310985	0.27995140761923604	1.0469883078839235	
79	1.3389830508474576	0.2547609807668317	0.34233131813749756	1.159154648171318	0.27479818105836085	-0.11493888066629876	1.1705632320407406	0.26838842158979487	-0.5163356743861299	1.1942140911414898	0.25405954747029347	-0.489754640651748	0.9679236187726644	0.321117846628803	-0.49061999187422944	0.9901735076401642	0.24701291721977792	-0.5902410544302309	1.2495251570045895	0.05031291137002372	0.3334008405913008	1.1488367962308597	0.060979961028637154	-0.09741421774459535	1.1613023194847334	0.06810568498835769	-0.498549580782526	1.1437558961180163	0.09106690912420554	-0.5007565365361444	0.9864682564579599	0.03274779148539431	-0.5079729353593057	1.0179102684458399	0.08164974419087197	-0.5624689583583589	1.2129708797900687	0.1505433516862823	0.8808089007076753	1.1727914481050572	0.1554432623682656	1.143890774201543	1.0944819782428366	0.14549598188003077	1.0169065998594908	1.011568156529735	0.3026778219898499	0.8315702604406114	1.1273751879091867	0.4853465649135598	0.5982676246326126	1.1766520775868692	0.397615094736229	0.39663005298805853	1.1179386912193854	0.23994002137134424	0.36846670963522654	1.0680694462004985	0.24568388287742737	0.32290678283314783	1.0535503263818842	0.325208183803134	0.300738715162761	1.0574638418123388	0.006916445591524323	0.8278864554580747	1.1379437992123638	-0.15755383887551638	0.5924701494416558	1.162229213667196	-0.06284463772854974	0.3585744603156032	1.129130371199462	0.042291826002900296	0.3338628443965483	1.1330418241135294	0.034930246216716476	0.3210945907892539	1.0782728933451344	0.0005318699406553007	0.2786735693888678	1.0473486824536815	
